<?xml version="1.0" encoding="iso-8859-1"?>
<!-- Generator: Adobe Illustrator 19.1.0, SVG Export Plug-In . SVG Version: 6.00 Build 0)  -->
<svg xmlns="http://www.w3.org/2000/svg" xmlns:xlink="http://www.w3.org/1999/xlink" version="1.1" id="Capa_1" x="0px" y="0px" viewBox="0 0 63.805 63.805" style="enable-background:new 0 0 63.805 63.805;" xml:space="preserve" width="512px" height="512px">
<g>
	<g id="group-11svg">
		<path id="path-1_1_" d="M42.585,63.805c-2.538,0-4.923-0.989-6.717-2.784L2.807,27.937c-1.795-1.795-2.783-4.183-2.783-6.722    c0-2.54,0.988-4.927,2.783-6.723l12.871-12.88C16.716,0.573,18.097,0,19.567,0s2.85,0.573,3.889,1.612l38.717,38.745    c2.144,2.146,2.144,5.637,0,7.784l-12.871,12.88C47.508,62.816,45.123,63.805,42.585,63.805z M19.567,3.002    c-0.668,0-1.295,0.261-1.768,0.733L4.928,16.615c-1.227,1.229-1.904,2.862-1.904,4.6c0,1.737,0.677,3.37,1.904,4.599    l33.061,33.084c1.227,1.229,2.86,1.905,4.596,1.905s3.369-0.676,4.596-1.905l12.871-12.88c0.975-0.975,0.975-2.563,0-3.538    L21.334,3.735C20.862,3.263,20.235,3.002,19.567,3.002z" fill="#39a2ed"/>
		<path id="path-2_1_" d="M6.875,31.065c-0.384,0-0.768-0.146-1.061-0.439c-0.586-0.587-0.586-1.537,0-2.123l8.968-8.974    c0.586-0.586,1.535-0.586,2.121,0c0.586,0.586,0.586,1.537,0,2.123l-8.968,8.974C7.642,30.919,7.258,31.065,6.875,31.065z" fill="#39a2ed"/>
		<path id="path-3_1_" d="M11.766,35.96c-0.384,0-0.768-0.147-1.06-0.44c-0.586-0.586-0.586-1.536,0-2.122l4.891-4.895    c0.586-0.586,1.535-0.586,2.121,0c0.586,0.586,0.586,1.536,0,2.123l-4.891,4.894C12.534,35.813,12.15,35.96,11.766,35.96z" fill="#39a2ed"/>
		<path id="path-4_1_" d="M17.473,41.671c-0.384,0-0.767-0.147-1.06-0.44c-0.586-0.586-0.586-1.536,0-2.123l8.966-8.973    c0.586-0.587,1.536-0.587,2.121-0.001c0.586,0.586,0.586,1.537,0,2.123l-8.966,8.974C18.241,41.524,17.857,41.671,17.473,41.671z" fill="#39a2ed"/>
		<path id="path-5" d="M22.364,46.566c-0.384,0-0.768-0.147-1.061-0.44c-0.586-0.586-0.586-1.537,0-2.123l4.892-4.895    c0.586-0.586,1.535-0.586,2.121,0c0.586,0.587,0.586,1.537,0,2.123l-4.892,4.895C23.131,46.419,22.748,46.566,22.364,46.566z" fill="#39a2ed"/>
		<path id="path-6" d="M28.071,52.276c-0.384,0-0.768-0.146-1.061-0.439c-0.586-0.586-0.586-1.537,0-2.123l8.968-8.974    c0.586-0.586,1.535-0.586,2.121,0c0.586,0.586,0.586,1.537,0,2.123l-8.968,8.974C28.838,52.13,28.455,52.276,28.071,52.276z" fill="#39a2ed"/>
		<path id="path-7" d="M32.962,57.171c-0.383,0-0.767-0.146-1.06-0.439c-0.586-0.587-0.586-1.537,0-2.124l4.891-4.894    c0.586-0.586,1.536-0.586,2.122,0c0.585,0.586,0.585,1.537,0,2.123l-4.892,4.895C33.73,57.025,33.346,57.171,32.962,57.171z" fill="#39a2ed"/>
	</g>
</g>
<g>
</g>
<g>
</g>
<g>
</g>
<g>
</g>
<g>
</g>
<g>
</g>
<g>
</g>
<g>
</g>
<g>
</g>
<g>
</g>
<g>
</g>
<g>
</g>
<g>
</g>
<g>
</g>
<g>
</g>
</svg>
